<svg xmlns="http://www.w3.org/2000/svg" xmlns:xlink="http://www.w3.org/1999/xlink" width="128" zoomAndPan="magnify" viewBox="0 0 96 95.999999" height="128" preserveAspectRatio="xMidYMid meet" version="1.0">
  <style>
    .letter { fill: #03001f; }
    .dot { fill: #ffa800; }
    @media (prefers-color-scheme: dark) {
      .letter { fill: #ffa800; }
      .dot { fill: #f9f9ff; }
    }
  </style>
  <defs><g/></defs>
  <g class="letter" fill-opacity="1"><g transform="translate(13.793164, 61.403319)"><g><path d="M 2.34375 0 L 2.34375 -0.703125 C 3.175781 -0.960938 3.71875 -1.519531 3.96875 -2.375 C 4.21875 -3.226562 4.34375 -4.550781 4.34375 -6.34375 L 4.34375 -28.65625 C 4.34375 -30.445312 4.21875 -31.769531 3.96875 -32.625 C 3.71875 -33.476562 3.175781 -34.035156 2.34375 -34.296875 L 2.34375 -35 L 11.65625 -35 L 11.65625 -34.296875 C 10.820312 -34.035156 10.28125 -33.476562 10.03125 -32.625 C 9.78125 -31.769531 9.65625 -30.445312 9.65625 -28.65625 L 9.65625 -19 L 27.046875 -19 L 27.046875 -28.65625 C 27.046875 -30.445312 26.921875 -31.769531 26.671875 -32.625 C 26.421875 -33.476562 25.878906 -34.035156 25.046875 -34.296875 L 25.046875 -35 L 34.34375 -35 L 34.34375 -34.296875 C 33.507812 -34.035156 32.96875 -33.476562 32.71875 -32.625 C 32.46875 -31.769531 32.34375 -30.445312 32.34375 -28.65625 L 32.34375 -6.34375 C 32.34375 -4.550781 32.46875 -3.226562 32.71875 -2.375 C 32.96875 -1.519531 33.507812 -0.960938 34.34375 -0.703125 L 34.34375 0 L 25.046875 0 L 25.046875 -0.703125 C 25.878906 -0.960938 26.421875 -1.519531 26.671875 -2.375 C 26.921875 -3.226562 27.046875 -4.550781 27.046875 -6.34375 L 27.046875 -18.09375 L 9.65625 -18.09375 L 9.65625 -6.34375 C 9.65625 -4.550781 9.78125 -3.226562 10.03125 -2.375 C 10.28125 -1.519531 10.820312 -0.960938 11.65625 -0.703125 L 11.65625 0 Z M 2.34375 0 "/></g></g></g>
  <g class="letter" fill-opacity="1"><g transform="translate(49.087497, 61.403319)"><g><path d="M 14.296875 0.5 C 11.734375 0.5 9.347656 0.140625 7.140625 -0.578125 C 4.941406 -1.296875 3.210938 -2.117188 1.953125 -3.046875 L 1.75 -10.546875 L 2.40625 -10.65625 C 3.101562 -8.75 4.054688 -7.035156 5.265625 -5.515625 C 6.484375 -4.003906 7.957031 -2.796875 9.6875 -1.890625 C 11.425781 -0.992188 13.394531 -0.546875 15.59375 -0.546875 C 16.757812 -0.546875 17.84375 -0.785156 18.84375 -1.265625 C 19.84375 -1.753906 20.660156 -2.460938 21.296875 -3.390625 C 21.929688 -4.328125 22.25 -5.476562 22.25 -6.84375 C 22.25 -8.082031 21.898438 -9.160156 21.203125 -10.078125 C 20.503906 -10.992188 19.613281 -11.789062 18.53125 -12.46875 C 17.445312 -13.15625 16.300781 -13.753906 15.09375 -14.265625 C 13.894531 -14.785156 12.796875 -15.25 11.796875 -15.65625 C 10.097656 -16.382812 8.53125 -17.113281 7.09375 -17.84375 C 5.664062 -18.582031 4.515625 -19.523438 3.640625 -20.671875 C 2.773438 -21.828125 2.34375 -23.367188 2.34375 -25.296875 C 2.34375 -28.398438 3.5 -30.847656 5.8125 -32.640625 C 8.132812 -34.441406 11.265625 -35.34375 15.203125 -35.34375 C 17.066406 -35.34375 18.804688 -35.160156 20.421875 -34.796875 C 22.035156 -34.429688 23.492188 -33.914062 24.796875 -33.25 L 25 -26.75 L 24.453125 -26.546875 C 23.421875 -29.117188 21.910156 -31.085938 19.921875 -32.453125 C 17.941406 -33.816406 15.734375 -34.5 13.296875 -34.5 C 11.296875 -34.5 9.601562 -33.941406 8.21875 -32.828125 C 6.84375 -31.710938 6.15625 -30.171875 6.15625 -28.203125 C 6.15625 -27.097656 6.425781 -26.132812 6.96875 -25.3125 C 7.519531 -24.5 8.253906 -23.789062 9.171875 -23.1875 C 10.085938 -22.59375 11.070312 -22.070312 12.125 -21.625 C 13.175781 -21.175781 14.203125 -20.75 15.203125 -20.34375 C 16.460938 -19.84375 17.75 -19.3125 19.0625 -18.75 C 20.382812 -18.1875 21.59375 -17.519531 22.6875 -16.75 C 23.789062 -15.976562 24.675781 -15.0625 25.34375 -14 C 26.007812 -12.9375 26.34375 -11.65625 26.34375 -10.15625 C 26.34375 -8.445312 25.992188 -6.925781 25.296875 -5.59375 C 24.597656 -4.257812 23.664062 -3.144531 22.5 -2.25 C 21.332031 -1.351562 20.03125 -0.671875 18.59375 -0.203125 C 17.164062 0.265625 15.734375 0.5 14.296875 0.5 Z M 14.296875 0.5 "/></g></g></g>
  <g class="dot" fill-opacity="1"><g transform="translate(75.340036, 61.403319)"><g><path d="M 5.703125 0.34375 C 4.898438 0.34375 4.207031 0.046875 3.625 -0.546875 C 3.039062 -1.148438 2.75 -1.867188 2.75 -2.703125 C 2.75 -3.535156 3.039062 -4.242188 3.625 -4.828125 C 4.207031 -5.410156 4.898438 -5.703125 5.703125 -5.703125 C 6.503906 -5.703125 7.1875 -5.410156 7.75 -4.828125 C 8.3125 -4.242188 8.59375 -3.535156 8.59375 -2.703125 C 8.59375 -1.867188 8.3125 -1.148438 7.75 -0.546875 C 7.1875 0.046875 6.503906 0.34375 5.703125 0.34375 Z M 5.703125 0.34375 "/></g></g></g>
</svg>
